<svg version="1.1" viewBox="0.0 0.0 545.4566929133858 542.2152230971128" fill="none" stroke="none" stroke-linecap="square" stroke-miterlimit="10" xmlns:xlink="http://www.w3.org/1999/xlink" xmlns="http://www.w3.org/2000/svg"><clipPath id="p.0"><path d="m0 0l545.45667 0l0 542.2152l-545.45667 0l0 -542.2152z" clip-rule="nonzero"/></clipPath><g clip-path="url(#p.0)"><path fill="#000000" fill-opacity="0.0" d="m0 0l545.45667 0l0 542.2152l-545.45667 0z" fill-rule="evenodd"/><path fill="#ff9900" d="m0.88582677 542.20996l0 -303.74307l271.8425 -238.46164l271.84253 238.46164l0 303.74307z" fill-rule="evenodd"/><path fill="#000000" fill-opacity="0.0" d="m271.52808 0.04089602c-2.170807 6.8377748 -9.128326 12.699127 -7.710907 19.843515c1.9935913 10.048464 16.631287 10.920513 18.105255 21.110165c2.235321 15.453281 -16.86679 34.91337 -8.046783 46.020294" fill-rule="evenodd"/><path stroke="#ffffff" stroke-width="1.0" stroke-linejoin="round" stroke-linecap="butt" d="m271.52808 0.04089602c-2.170807 6.8377748 -9.128326 12.699127 -7.710907 19.843515c1.9935913 10.048464 16.631287 10.920513 18.105255 21.110165c2.235321 15.453281 -16.86679 34.91337 -8.046783 46.020294" fill-rule="evenodd"/><path fill="#ffffff" d="m317.18213 139.16705l0 0c0 6.4519653 -5.2303467 11.682327 -11.682312 11.682327l-68.65457 0c-3.098343 0 -6.0697784 -1.2308197 -8.260651 -3.4216766c-2.190857 -2.190857 -3.4216614 -5.1623077 -3.4216614 -8.260651l0 0l0 0c0 -6.4519653 5.2303467 -11.68232 11.682312 -11.68232l68.65457 0l0 0c6.4519653 0 11.682312 5.2303543 11.682312 11.68232z" fill-rule="evenodd"/><path stroke="#ffffff" stroke-width="1.0" stroke-linejoin="round" stroke-linecap="butt" d="m317.18213 139.16705l0 0c0 6.4519653 -5.2303467 11.682327 -11.682312 11.682327l-68.65457 0c-3.098343 0 -6.0697784 -1.2308197 -8.260651 -3.4216766c-2.190857 -2.190857 -3.4216614 -5.1623077 -3.4216614 -8.260651l0 0l0 0c0 -6.4519653 5.2303467 -11.68232 11.682312 -11.68232l68.65457 0l0 0c6.4519653 0 11.682312 5.2303543 11.682312 11.68232z" fill-rule="evenodd"/><path fill="#ffffff" d="m232.4899 162.52866c14.845398 -3.6490936 59.37787 -2.6727448 74.46707 -1.4551392c15.089203 1.2176208 12.903778 4.8679504 16.068146 8.760803c3.1643677 3.8928528 -0.0025024414 5.349243 2.9180603 14.596329c2.9205627 9.247101 5.843628 22.14827 14.605347 40.88623c8.761719 18.73796 29.9346 52.317276 37.964935 71.54152c8.030304 19.224274 10.460785 26.039886 10.21698 43.804016c-0.24377441 17.7641 -1.2152405 43.556458 -11.679779 62.7807c-10.464539 19.224274 -34.80179 41.857574 -51.107483 52.56482c-16.305695 10.707214 -32.853912 10.462189 -46.726654 11.678558c-13.872711 1.2163696 -22.880707 0.730072 -36.50963 -4.3804016c-13.628906 -5.1104736 -32.60887 -14.358826 -45.26384 -26.28241c-12.6549835 -11.923584 -24.094711 -31.631622 -30.666 -45.259125c-6.571289 -13.627502 -7.3014374 -25.798584 -8.761719 -36.50583c-1.4602814 -10.707214 -2.1904297 -16.300232 0 -27.737518c2.1904297 -11.437286 8.03157 -28.475098 13.142578 -40.88623c5.1109924 -12.411133 11.195938 -21.656982 17.523422 -33.580566c6.327484 -11.923584 15.574295 -26.279907 20.441498 -37.960968c4.8672028 -11.681061 4.8672028 -23.364624 8.7617035 -32.125427c3.894516 -8.760803 -0.24003601 -16.790283 14.605362 -20.439362z" fill-rule="evenodd"/><path stroke="#ffffff" stroke-width="1.0" stroke-linejoin="round" stroke-linecap="butt" d="m232.4899 162.52866c14.845398 -3.6490936 59.37787 -2.6727448 74.46707 -1.4551392c15.089203 1.2176208 12.903778 4.8679504 16.068146 8.760803c3.1643677 3.8928528 -0.0025024414 5.349243 2.9180603 14.596329c2.9205627 9.247101 5.843628 22.14827 14.605347 40.88623c8.761719 18.73796 29.9346 52.317276 37.964935 71.54152c8.030304 19.224274 10.460785 26.039886 10.21698 43.804016c-0.24377441 17.7641 -1.2152405 43.556458 -11.679779 62.7807c-10.464539 19.224274 -34.80179 41.857574 -51.107483 52.56482c-16.305695 10.707214 -32.853912 10.462189 -46.726654 11.678558c-13.872711 1.2163696 -22.880707 0.730072 -36.50963 -4.3804016c-13.628906 -5.1104736 -32.60887 -14.358826 -45.26384 -26.28241c-12.6549835 -11.923584 -24.094711 -31.631622 -30.666 -45.259125c-6.571289 -13.627502 -7.3014374 -25.798584 -8.761719 -36.50583c-1.4602814 -10.707214 -2.1904297 -16.300232 0 -27.737518c2.1904297 -11.437286 8.03157 -28.475098 13.142578 -40.88623c5.1109924 -12.411133 11.195938 -21.656982 17.523422 -33.580566c6.327484 -11.923584 15.574295 -26.279907 20.441498 -37.960968c4.8672028 -11.681061 4.8672028 -23.364624 8.7617035 -32.125427c3.894516 -8.760803 -0.24003601 -16.790283 14.605362 -20.439362z" fill-rule="evenodd"/><path fill="#ffffff" d="m291.2233 93.12397l0 0c0 6.451973 -5.2303467 11.682327 -11.682312 11.682327l-16.576752 0l0 0c-3.0983582 0 -6.0697937 -1.2308121 -8.260666 -3.4216766c-2.190857 -2.190857 -3.4216766 -5.1623 -3.4216766 -8.260651l0 0l0 0c0 -6.4519653 5.2303467 -11.68232 11.682343 -11.68232l16.576752 0c6.4519653 0 11.682312 5.2303543 11.682312 11.68232z" fill-rule="evenodd"/><path stroke="#ffffff" stroke-width="1.0" stroke-linejoin="round" stroke-linecap="butt" d="m291.2233 93.12397l0 0c0 6.451973 -5.2303467 11.682327 -11.682312 11.682327l-16.576752 0l0 0c-3.0983582 0 -6.0697937 -1.2308121 -8.260666 -3.4216766c-2.190857 -2.190857 -3.4216766 -5.1623 -3.4216766 -8.260651l0 0l0 0c0 -6.4519653 5.2303467 -11.68232 11.682343 -11.68232l16.576752 0c6.4519653 0 11.682312 5.2303543 11.682312 11.68232z" fill-rule="evenodd"/><path fill="#ffffff" d="m317.18213 108.166595l0 0c0 6.4519653 -5.2303467 11.68232 -11.682312 11.68232l-68.65457 0c-3.098343 0 -6.0697784 -1.2308121 -8.260651 -3.421669c-2.190857 -2.1908646 -3.4216614 -5.1623077 -3.4216614 -8.260651l0 0l0 0c0 -6.4519653 5.2303467 -11.68232 11.682312 -11.68232l68.65457 0l0 0c6.4519653 0 11.682312 5.2303543 11.682312 11.68232z" fill-rule="evenodd"/><path stroke="#ffffff" stroke-width="1.0" stroke-linejoin="round" stroke-linecap="butt" d="m317.18213 108.166595l0 0c0 6.4519653 -5.2303467 11.68232 -11.682312 11.68232l-68.65457 0c-3.098343 0 -6.0697784 -1.2308121 -8.260651 -3.421669c-2.190857 -2.1908646 -3.4216614 -5.1623077 -3.4216614 -8.260651l0 0l0 0c0 -6.4519653 5.2303467 -11.68232 11.682312 -11.68232l68.65457 0l0 0c6.4519653 0 11.682312 5.2303543 11.682312 11.68232z" fill-rule="evenodd"/></g></svg>